<svg xmlns="http://www.w3.org/2000/svg" viewBox="0 0 1280 720">
  <defs>
    <linearGradient id="sky" x1="0" y1="0" x2="0" y2="1"><stop offset="0" stop-color="#FCEBC6"/><stop offset="1" stop-color="#FBF6EC"/></linearGradient>
  </defs>
  <rect width="1280" height="720" fill="url(#sky)"/>
  <circle cx="640" cy="330" r="150" fill="#F4B63F"/>
  <circle cx="640" cy="330" r="210" fill="#F4B63F" opacity=".22"/>
  <g stroke="#E8772E" stroke-width="14" stroke-linecap="round">
    <line x1="640" y1="120" x2="640" y2="80"/><line x1="790" y1="175" x2="815" y2="145"/><line x1="490" y1="175" x2="465" y2="145"/>
    <line x1="860" y1="290" x2="900" y2="275"/><line x1="420" y1="290" x2="380" y2="275"/>
  </g>
  <path d="M0 400 Q200 330 420 390 T860 370 T1280 380 V720 H0Z" fill="#2C3D57"/>
  <path d="M0 450 Q260 400 520 450 T1040 440 T1280 450 V720 H0Z" fill="#1B2A41"/>
  <path d="M0 520 Q320 470 640 520 T1280 510 V720 H0Z" fill="#A84A14"/>
  <path d="M600 430 L680 430 L1020 720 L260 720 Z" fill="#E6DAC4"/>
  <g fill="#FBF6EC"><rect x="634" y="450" width="12" height="26" rx="4"/><rect x="630" y="510" width="20" height="40" rx="6"/><rect x="624" y="600" width="32" height="70" rx="8"/></g>
  <g transform="translate(720 360)" stroke="#1B2A41" stroke-width="18" stroke-linecap="round" stroke-linejoin="round" fill="none">
    <circle cx="0" cy="-30" r="24" fill="#1B2A41" stroke="none"/>
    <path d="M-4 0 L-14 70"/>
    <path d="M-6 12 L30 34 L50 16"/>
    <path d="M-6 12 L-40 30 L-58 10"/>
    <path d="M-14 70 L18 104 L8 150"/>
    <path d="M-14 70 L-40 110" stroke="#5B6475"/>
    <path d="M-40 110 L-72 128" stroke="#5B6475" stroke-width="10"/>
  </g>
  <path d="M1060 560 l18 -40 l10 22 l24 -10 l-6 26 l22 4 l-30 22 l6 12 l-44 -6 l-44 6 l6 -12 l-30 -22 l22 -4 l-6 -26 l24 10 l10 -22z" fill="#E8772E" transform="translate(-30 30) scale(1)"/>
  <rect x="1050" y="600" width="8" height="40" fill="#E8772E"/>
</svg>
