<svg xmlns="http://www.w3.org/2000/svg" viewBox="0 0 1200 675">
  <rect width="1200" height="675" fill="#FCEBC6"/>
  <circle cx="200" cy="560" r="260" fill="#F4B63F" opacity=".45"/>
  <circle cx="1060" cy="120" r="180" fill="#FBF6EC"/>
  <g transform="translate(250 130)">
    <rect x="0" y="0" width="150" height="250" rx="75" fill="#1B2A41"/>
    <g stroke="#2C3D57" stroke-width="8" stroke-linecap="round"><line x1="30" y1="70" x2="120" y2="70"/><line x1="30" y1="105" x2="120" y2="105"/><line x1="30" y1="140" x2="120" y2="140"/><line x1="30" y1="175" x2="120" y2="175"/></g>
    <path d="M-40 170 a115 115 0 0 0 230 0" stroke="#1B2A41" stroke-width="18" fill="none" stroke-linecap="round"/>
    <rect x="66" y="285" width="18" height="90" fill="#1B2A41"/>
    <rect x="5" y="370" width="140" height="22" rx="11" fill="#1B2A41"/>
  </g>
  <g font-family="Georgia, serif" font-weight="700">
    <g transform="translate(560 110)"><rect width="200" height="110" rx="26" fill="#FFFFFF"/><path d="M30 106 L20 146 L70 106Z" fill="#FFFFFF"/><text x="100" y="58" text-anchor="middle" font-size="22" fill="#A84A14" font-family="Helvetica, Arial, sans-serif">PART</text><text x="100" y="95" text-anchor="middle" font-size="44" fill="#1B2A41">1</text></g>
    <g transform="translate(640 270)"><rect width="240" height="130" rx="30" fill="#1B2A41"/><path d="M36 126 L24 170 L84 126Z" fill="#1B2A41"/><text x="120" y="64" text-anchor="middle" font-size="24" fill="#F4B63F" font-family="Helvetica, Arial, sans-serif">PART</text><text x="120" y="108" text-anchor="middle" font-size="52" fill="#FBF6EC">2</text></g>
    <g transform="translate(560 450)"><rect width="200" height="110" rx="26" fill="#E8772E"/><path d="M30 106 L20 146 L70 106Z" fill="#E8772E"/><text x="100" y="58" text-anchor="middle" font-size="22" fill="#1B2A41" font-family="Helvetica, Arial, sans-serif">PART</text><text x="100" y="95" text-anchor="middle" font-size="44" fill="#1B2A41">3</text></g>
  </g>
  <g transform="translate(1010 420)">
    <circle r="110" fill="#FFFFFF" stroke="#1B2A41" stroke-width="10"/>
    <rect x="-16" y="-138" width="32" height="24" rx="6" fill="#1B2A41"/>
    <path d="M0 0 L0 -80 A80 80 0 0 1 69 40 Z" fill="#F4B63F"/>
    <line x1="0" y1="0" x2="0" y2="-80" stroke="#1B2A41" stroke-width="8" stroke-linecap="round"/>
    <circle r="10" fill="#1B2A41"/>
  </g>
</svg>
